<svg xmlns="http://www.w3.org/2000/svg" viewBox="0 0 771 74"><defs><style>.cls-1{fill:#fff;}</style></defs><g id="Capa_2" data-name="Capa 2"><g id="Capa_1-2" data-name="Capa 1"><path class="cls-1" d="M0,37.1C0,15,16.8,0,36.6,0c21.3,0,30.7,13.7,33,23.9L54.7,28.6c-1.1-4.9-5.6-13.2-18.1-13.2-9.5,0-20.2,6.8-20.2,21.7,0,13.3,9.8,21,20.4,21,12.3,0,17.2-8.2,18.6-13.3l15.1,4.3c-2.3,9.8-11.7,24.8-33.7,24.8C16.4,73.9,0,59.2,0,37.1Z"/><path class="cls-1" d="M113.5,0c19.9,0,36.8,14.5,36.8,37s-16.9,36.9-36.8,36.9S76.6,59.4,76.6,37,93.5,0,113.5,0Zm0,58.3c9.8,0,20.4-6.6,20.4-21.4s-10.6-21.5-20.4-21.5S93,22.1,93,36.9,103.6,58.3,113.5,58.3Z"/><path class="cls-1" d="M226.4,72.4v-47l-18.5,47H195.1L176.6,26V72.4h-15V1.5h20.6l19.5,47.9L220.2,1.5h21.7V72.4Z"/><path class="cls-1" d="M273.1,46.9V72.4H257.3V1.5H284c14.4,0,24.3,9.5,24.3,22.7,0,13.4-9.9,22.7-24.3,22.7Zm9.3-13.6c6,0,10.1-3.5,10.1-9,0-5.7-4.1-9.1-10.1-9.1h-9.2V33.3Z"/><path class="cls-1" d="M318.4,46.8V1.5h15.8v44c0,8.6,4.8,12.9,12.3,12.9s12.3-4.3,12.3-12.9V1.5h15.8V46.8c0,17.8-12.5,27.2-28.1,27.2S318.4,64.6,318.4,46.8Z"/><path class="cls-1" d="M421.7,16.6V72.4H405.9V16.6H384.09V1.5H443.6V16.6Z"/><path class="cls-1" d="M474.59,46H469V72.4h-15.8V1.5h28.1c14,0,23,9.6,23,22.2,0,9.6-5.3,16.9-14,20l14.4,28.7H487.3Zm3.7-13.6c6.51,0,10-3.6,10-8.6,0-5.3-3.5-8.6-10-8.6H469V32.4Z"/><path class="cls-1" d="M548.3,0c19.9,0,36.8,14.5,36.8,37s-16.9,36.9-36.8,36.9S511.39,59.4,511.39,37,528.29,0,548.3,0Zm0,58.3c9.8,0,20.4-6.6,20.4-21.4s-10.6-21.5-20.4-21.5-20.51,6.7-20.51,21.5S538.4,58.3,548.3,58.3Z"/><path class="cls-1" d="M641.3,72.4,612.09,25.8V72.4h-15.7V1.5h19.2L642.2,44.6V1.5H658V72.4Z"/><path class="cls-1" d="M673.29,72.4V1.5h16V72.4Z"/><path class="cls-1" d="M700.49,37.1c0-22.1,16.8-37.1,36.6-37.1,21.31,0,30.71,13.7,33,23.9l-14.9,4.7c-1.11-4.9-5.61-13.2-18.11-13.2-9.5,0-20.2,6.8-20.2,21.7,0,13.3,9.8,21,20.4,21,12.3,0,17.21-8.2,18.61-13.3L771,49.1c-2.3,9.8-11.71,24.8-33.71,24.8C716.89,73.9,700.49,59.2,700.49,37.1Z"/></g></g></svg>