<svg xmlns="http://www.w3.org/2000/svg" viewBox="0 0 639 92.81"><defs><style>.cls-1{fill:#fff;}</style></defs><g id="Capa_2" data-name="Capa 2"><g id="Capa_1-2" data-name="Capa 1"><path class="cls-1" d="M0,38.5C0,16.4,16.8,1.4,36.6,1.4c21.3,0,30.7,13.7,33,23.9L54.7,30c-1.1-4.9-5.6-13.2-18.1-13.2-9.5,0-20.2,6.8-20.2,21.7,0,13.3,9.8,21,20.4,21,12.3,0,17.2-8.2,18.6-13.3l15.1,4.3c-2.3,9.8-11.7,24.8-33.7,24.8C16.4,75.3,0,60.6,0,38.5Z"/><path class="cls-1" d="M127.9,48.9c0,15.4-11.5,26.4-26.4,26.4s-26.4-11-26.4-26.4,11.6-26.3,26.4-26.3S127.9,33.5,127.9,48.9Zm-15.2,0c0-8.4-5.4-12.3-11.2-12.3S90.3,40.5,90.3,48.9s5.5,12.4,11.2,12.4S112.7,57.3,112.7,48.9Z"/><path class="cls-1" d="M137.7,73.8V24.1h14.5v5.7c2.5-4.4,8.9-7.2,14.3-7.2,7.1,0,12.2,2.9,14.7,7.8,3.9-5.6,8.7-7.8,15.4-7.8,9.4,0,18.4,5.5,18.4,19V73.8H200.3V45c0-4.7-2.5-8.4-7.9-8.4s-8.3,4.1-8.3,8.5V73.8h-15V45c0-4.7-2.5-8.4-8-8.4-5.3,0-8.2,4.1-8.2,8.6V73.8Z"/><path class="cls-1" d="M227.8,92.81V24.1h14.7v5.1c2.1-3.2,7.5-6.3,14.6-6.3,14.4,0,23.1,11,23.1,25.9,0,15.2-9.8,26.1-23.7,26.1-6.4,0-11.2-2.2-13.5-5V92.81ZM254,36.6c-5.9,0-11.2,4-11.2,12.3s5.3,12.4,11.2,12.4,11.3-4.1,11.3-12.4S260,36.6,254,36.6Z"/><path class="cls-1" d="M321.6,68.8c-2.6,4.3-8.3,6.1-13.3,6.1-12.1,0-18.9-8.8-18.9-19.4V24.1h15.2V52.3c0,4.8,2.6,8.6,8,8.6,5.1,0,8.3-3.5,8.3-8.5V24.1h15.2V64.9a77.94,77.94,0,0,0,.5,8.9H322A36.19,36.19,0,0,1,321.6,68.8Z"/><path class="cls-1" d="M382.3,18V73.8H366.5V18H344.7V2.9h59.5V18Z"/><path class="cls-1" d="M436.6,39.1a20.63,20.63,0,0,0-4.8-.5c-6.1,0-11.6,3.6-11.6,13.5V73.8H405V24.1h14.7v6.7c2.6-5.6,8.9-7.2,12.9-7.2a15,15,0,0,1,4,.5Z"/><path class="cls-1" d="M494.4,48.9c0,15.4-11.5,26.4-26.4,26.4s-26.4-11-26.4-26.4S453.2,22.6,468,22.6,494.4,33.5,494.4,48.9Zm-15.2,0c0-8.4-5.4-12.3-11.2-12.3s-11.2,3.9-11.2,12.3,5.5,12.4,11.2,12.4S479.2,57.3,479.2,48.9Z"/><path class="cls-1" d="M519.4,73.8H504.2V24.1h14.7v5.7c2.7-4.7,8.8-7,13.9-7,12.5,0,18.1,8.9,18.1,19.8V73.8H535.7V45.2c0-4.9-2.6-8.6-8.1-8.6-5,0-8.2,3.7-8.2,8.7Z"/><path class="cls-1" d="M571.2,0a8.9,8.9,0,1,1-8.8,8.9A8.94,8.94,0,0,1,571.2,0Zm-7.5,73.8V24.1h15.2V73.8Z"/><path class="cls-1" d="M603.7,49c0,7.9,5.3,12.3,11.6,12.3a10.25,10.25,0,0,0,10.3-7.4L639,58c-2.2,8.7-10.4,17.3-23.7,17.3-14.8,0-26.7-10.9-26.7-26.3s11.6-26.4,26.2-26.4c13.7,0,21.7,8.4,23.9,17.3L625.1,44a9.77,9.77,0,0,0-10-7.4C608.8,36.6,603.7,41,603.7,49Z"/></g></g></svg>